# xmcd
#
# Track frame offsets:
#	150
#	16622
#	31277
#	44267
#	56007
#	69337
#	79682
#	90747
#	100682
#	111822
#	120850
#	135317
#	151032
#	164467
#	177335
#	189955
#	200597
#	211742
#	222602
#	247660
#	294382
#
# Disc length: 3935 seconds
#
# Revision: 0
# Processed by: cddbd v1.5.2PL0 Copyright (c) Steve Scherf et al.
# Submitted via: dBpowerAMP V4.0
#
DISCID=0a0f5d15
DTITLE=George Jones - My Very Special Guests [CD2]
DYEAR=2005
DGENRE=Country
TTITLE0=A Good Year For The Roses (With Alan Jackson)
TTITLE1=Yesterday's Wine (With Merle Haggard)
TTITLE2=Our Love Was Ahead Of It's Time (With Deborah Allen)
TTITLE3=We Sure Make Good Love (With Loretta Lynn)
TTITLE4=Size Seven Round (Made Of Gold) (With Lacy J. Dalton)
TTITLE5=I Got Stripes (With Johnny Cash)
TTITLE6=Fiddle And Guitar Band (With Charlie Daniels)
TTITLE7=We Didn't See A Thing (With Ray Charles, Featuring Chet Atkins)
TTITLE8=The Love Bug (With Vince Gill)
TTITLE9=Love's Gonna Live Here (With Buck Owens)
TTITLE10=If I Could Bottle This Up (With Shelby Lynne)
TTITLE11=If You Can Touch Her At All (With Lynn Anderson)
TTITLE12=All That We've Got Left (With Vern Gosdin)
TTITLE13=This Bottle (In My Hand) (With David Allan Coe)
TTITLE14=Talking To Hank (With Mark Chesnutt)
TTITLE15=Never Bit A Bullet Like This (With Sammy Kershaw)
TTITLE16=The Race Is On (With Travis Tritt)
TTITLE17=I've Been There (With Tim Mensy)
TTITLE18=Travelier's Prayer (With Sweethearts Of The Rodeo)
TTITLE19=DATA
TTITLE20=DATA
EXTD=
EXTT0=
EXTT1=
EXTT2=
EXTT3=
EXTT4=
EXTT5=
EXTT6=
EXTT7=
EXTT8=
EXTT9=
EXTT10=
EXTT11=
EXTT12=
EXTT13=
EXTT14=
EXTT15=
EXTT16=
EXTT17=
EXTT18=
EXTT19=
EXTT20=
PLAYORDER=
